<?xml version="1.0" encoding="UTF-8"?><svg id="Layer_2" xmlns="http://www.w3.org/2000/svg" viewBox="0 0 962.03 255.99"><defs><style>.cls-1{fill:#fff;}</style></defs><g id="Layer_1-2"><path class="cls-1" d="m205.5,186.52c-1.56-5.44-21.61-74.88-21.61-74.88,0,0-10.31,10.36-4.15,24.4,0,0-8.37-2.17-14.29,4.01-5.92,6.18-1.98,16.03,6.96,19.32,8.93,3.29,14.06-1.05,14.06-1.05,0,0-5.57-1.17-6.79-5.85-1.18-4.5,7.62-4.73,10.82.99-1.36.42-2.15,2.51-1.01,3.84.55.64,1.5.66,2.43.45.2,1.04.33,2.17.39,3.36-.82,2.03-2.37,4.73-4.65,3.9,0,0,2.38,2.47,4.39,1.85-.86,6.09-3.65,12.61-9.54,16.9-10.03,7.31-21.3.38-26.25-5.86,3.89-2.9,4.9-8.36,2.22-12.48-2.8-4.29-8.54-5.5-12.84-2.71-4.29,2.79-5.5,8.54-2.71,12.84,1.66,2.55,4.37,4.01,7.19,4.18-1.1,8.98-3.92,15.92-16.1,18.45v-53.49c0-16.39,21.59-27.95,32.1-37.69,10.51-9.74,18.8-22.27,18.8-45.59S173.22.18,173.22.18l-88.36-.18s-11.7,37.91-11.7,61.24,8.29,35.86,18.8,45.59c10.51,9.74,32.1,21.3,32.1,37.69v8.04c-1.43-.67-3.05-.9-4.78-.49-8.76,2.06-11.18,5.46-11.18,5.46,0,0-2.19-14.81-16.13-18.65-9.61,10.8-3.41,24.42-3.41,24.42,0,0-3.88-1.54-12.36,1.49-8.48,3.03-5.75,17.88,2.99,21.1,8.73,3.22,15.69-.51,15.69-.51-4.3-.57-9.69-6.97-5.66-9.18,2.91-1.6,6.9.23,9.56,4.14-1.63.92-1.78,1.23-.95,2.82.77,1.49,1.02,2.05,2.94,1.26.13.41.25.83.36,1.26.03.13.05.26.08.39-.13,1.46-.57,3.25-1.62,4.41-1.61,1.78-3.22,1.42-3.22,1.77,0,.24,2.8,1.16,5.4.89-.35,6.81-3.38,14.54-12.39,18.17-11.93,4.81-18.15.49-24.04-6.55,2.27-1.68,3.75-4.37,3.76-7.42.02-5.13-4.12-9.29-9.25-9.3-5.12-.02-9.29,4.12-9.31,9.25-.02,4.92,3.8,8.95,8.64,9.27-.76,7.93-6.46,19.86-18.85,19.18-7.28-.4-13.16-4.37-17.2-9.01,2.02-.56,2.68-3.93,2.68-3.93-1.46,1.93-4.23.52-6.02-.75-.6-1.04-1.1-2.05-1.5-3.04.89-.33,1.68-.86,1.79-1.7.24-1.73-1.56-3.05-2.93-2.67-.42-6.55,7.09-11.13,8.55-6.71,1.51,4.58-2.53,8.6-2.53,8.6,0,0,6.66.85,12.37-6.76,5.71-7.62,3.66-18.03-4.66-20-8.32-1.97-14.17,4.4-14.17,4.4-2.45-15.14-16.74-18.23-16.74-18.23,0,0,20.88,69.19,22.53,74.61,1.65,5.42,3.03,6.67,7.48,5.44,2.25-.62,44.34-13.04,86.09-25.39,2.53-.75,5.06-1.49,7.59-2.24-3.25,14.34-27.69,20.94-34.26,22.21-7.04,1.36-7.12,2.32-7.12,3.84s.64,2.24,2,2.24h54.1l-18.75.18h54.1c1.36,0,2-.72,2-2.24s-.08-2.48-7.12-3.84c-7.04-1.36-34.63-8.85-34.63-25.43h0c35.12-10.37,66.25-19.58,68.15-20.18,4.4-1.38,4.89-3.18,3.33-8.63Zm-92.27,3.26c2.33-1.19,4.18-3.49,4.05-3.69-.2-.3-1.35.87-3.66.26-1.5-.4-2.85-1.66-3.75-2.81-.05-.13-.11-.26-.15-.38-.15-.42-.27-.83-.38-1.25,2.08-.38,1.94-.99,1.78-2.66-.17-1.78-.46-1.97-2.33-1.85.11-4.73,2.46-8.42,5.78-8.67,4.58-.34,3.53,7.97.23,10.78,0,0,4.6-.39,9.27-3.91v22.3c-4.71-1.44-8.32-4.65-10.83-8.13Z"/><path class="cls-1" d="m257.85,2.05h26.18v95.2h59.33v23.8h-85.51V2.05Z"/><path class="cls-1" d="m355.4,61.89v-.34C355.4,27.72,382.09,0,418.81,0s63.07,27.37,63.07,61.2v.34c0,33.83-26.69,61.54-63.41,61.54s-63.07-27.37-63.07-61.2Zm99.11,0v-.34c0-20.4-14.96-37.4-36.04-37.4s-35.7,16.66-35.7,37.06v.34c0,20.4,14.96,37.4,36.04,37.4s35.7-16.66,35.7-37.06Z"/><path class="cls-1" d="m507.68,70.05V2.05h26.18v67.32c0,19.38,9.69,29.41,25.67,29.41s25.67-9.69,25.67-28.56V2.05h26.18v67.15c0,36.04-20.23,53.72-52.19,53.72s-51.51-17.85-51.51-52.87Z"/><path class="cls-1" d="m643.65,2.05h26.18v119h-26.18V2.05Z"/><path class="cls-1" d="m703.97,2.05h89.76v23.29h-63.75v24.14h56.1v23.29h-56.1v24.99h64.6v23.29h-90.61V2.05Z"/><path class="cls-1" d="m813.24,46.08c11.73-1.19,17.51-7.14,16.66-16.83h-10.54V2.05h27.54v22.95c0,22.44-11.22,31.45-31.45,31.79l-2.21-10.71Z"/><path class="cls-1" d="m867.1,103.71l15.47-18.53c10.71,8.84,21.93,14.45,35.53,14.45,10.71,0,17.17-4.25,17.17-11.22v-.34c0-6.63-4.08-10.03-23.97-15.13-23.97-6.12-39.44-12.75-39.44-36.38v-.34c0-21.59,17.34-35.87,41.65-35.87,17.34,0,32.13,5.44,44.2,15.13l-13.6,19.72c-10.54-7.31-20.91-11.73-30.94-11.73s-15.3,4.59-15.3,10.37v.34c0,7.82,5.1,10.37,25.67,15.64,24.14,6.29,37.74,14.96,37.74,35.7v.34c0,23.63-18.02,36.89-43.69,36.89-18.02,0-36.21-6.29-50.49-19.04Z"/><path class="cls-1" d="m249.38,164.9h11.11l25.84,75.32,24.81-75.58h8.4l24.81,75.58,25.84-75.32h10.72l-32.3,91.08h-8.66l-24.81-73.38-24.93,73.38h-8.53l-32.3-91.08Z"/><path class="cls-1" d="m400.28,164.9h10.21v90.44h-10.21v-90.44Z"/><path class="cls-1" d="m436.97,164.9h9.56l56.98,72.48v-72.48h9.95v90.44h-8.14l-58.4-74.16v74.16h-9.95v-90.44Z"/><path class="cls-1" d="m539.03,164.9h65.37v9.3h-55.17v30.88h49.35v9.3h-49.35v31.65h55.81v9.3h-66.02v-90.44Z"/><path class="cls-1" d="m660.49,164.9h31.4c28.42,0,48.06,19.51,48.06,44.96v.26c0,25.45-19.64,45.22-48.06,45.22h-31.4v-90.44Zm10.21,9.43v71.57h21.19c22.87,0,37.47-15.5,37.47-35.53v-.26c0-20.03-14.6-35.79-37.47-35.79h-21.19Z"/><path class="cls-1" d="m762.42,164.9h10.21v90.44h-10.21v-90.44Z"/><path class="cls-1" d="m791.36,164.9h11.37l32.17,77.91,32.3-77.91h10.98l-38.89,91.08h-9.04l-38.89-91.08Z"/><path class="cls-1" d="m896.01,164.9h65.37v9.3h-55.17v30.88h49.35v9.3h-49.35v31.65h55.81v9.3h-66.02v-90.44Z"/></g></svg>